<?xml version="1.0" encoding="utf-8"?>
<?xml-stylesheet type="text/xsl" href="rss1.xsl"?>
<rss version="2.0" xmlns:atom="http://www.w3.org/2005/Atom" xmlns:content="http://purl.org/rss/1.0/modules/content/" xmlns:dc="http://purl.org/dc/elements/1.1/" xmlns:media="http://search.yahoo.com/mrss/">
<channel>
 <title>Getty</title>
 <link>http://www.gettyimg.com/</link>
 <atom:link href="http://www.gettyimg.com/" rel="self" type="application/rss+xml" />

 
                <item>
                <title><![CDATA[【Requests】[REQ VID] - Carrie Underwood - 2023.09.14 Today Show]]></title>
                <link><![CDATA[https://sharemania.us/threads/carrie-underwood-2023-09-14-today-show.230027/]]></link>
                <description><![CDATA[<article>
<blockquote class="messageText SelectQuoteContainer ugc baseHtml">
<a href="https://www.today.com/popculture/citi-concert-series/carrie-underwood-today-show-concert-performance-watch-rcna104935" target="_blank" class="externalLink" rel="nofollow">https://www.today.com/popculture/ci...day-show-concert-performance-watch-rcna104935</a>
<div class="messageTextEndMarker">&nbsp;</div>
</blockquote>
</article>]]></description>
                <author><![CDATA[LiveHD]]></author>
                </item>

                
                <item>
                <title><![CDATA[【HD Live Performances】HDTV - Rita Ora feat Tarryn Stokes - Simply The Best [The Voice Australia Finale 8 Oct 2023 7HD]_1080i_DD2.0 azamusic]]></title>
                <link><![CDATA[https://sharemania.us/threads/rita-ora-feat-tarryn-stokes-simply-the-best-the-voice-australia-finale-8-oct-2023-7hd-_1080i_dd2-0-azamusic.230026/]]></link>
                <description><![CDATA[<article>
<blockquote class="messageText SelectQuoteContainer ugc baseHtml">
<span style="font-size: 15px"><span style="color: #5900b3"><b>Rita performed with her winning team member singing Simply The Best on the Voice Australia's Finale</b></span></span><br>
<br>
<br>
<div class="ToggleTriggerAnchor bbCodeSpoilerContainer">
<button type="button" class="button bbCodeSpoilerButton ToggleTrigger Tooltip JsOnly" data-target="> .SpoilerTarget"><span>Spoiler: <span class="SpoilerTitle">Media Info</span></span></button>
<div class="SpoilerTarget bbCodeSpoilerText">General<br>
ID : 1 (0x1)<br>
Complete name : D:\Rita Ora feat Tarryn Stokes - Simply The Best [The Voice Australia Finale 8 Oct 2023 7HD]_azamusic.ts<br>
Format : MPEG-TS<br>
File size : 201 MiB<br>
Duration : 4 min 36 s<br>
Overall bit rate mode : Variable<br>
Overall bit rate : 6 086 kb/s<br>
<br>
Video<br>
ID : 1089 (0x441)<br>
Menu ID : 1348 (0x544)<br>
Format : AVC<br>
Format/Info : Advanced Video Codec<br>
Format profile : High@L4<br>
Format settings : CABAC / 4 Ref Frames<br>
Format settings, CABAC : Yes<br>
Format settings, Reference fra : 4 frames<br>
Codec ID : 27<br>
Duration : 4 min 36 s<br>
Bit rate : 5 397 kb/s<br>
Nominal bit rate : 3 874 kb/s<br>
Width : 1 920 pixels<br>
Height : 1 080 pixels<br>
Display aspect ratio : 16:9<br>
Frame rate : 25.000 FPS<br>
Color space : YUV<br>
Chroma subsampling : 4:2:0<br>
Bit depth : 8 bits<br>
Scan type : MBAFF<br>
Scan type, store method : Interleaved fields<br>
Scan order : Top Field First<br>
Bits/(Pixel*Frame) : 0.104<br>
Stream size : 178 MiB (89%)<br>
Writing library : x264 core 160 r3000<br>
Encoding settings : cabac=1 / ref=4 / deblock=1:0:0 / analyse=0x3:0x113 / me=hex / subme=4 / psy=1 / psy_rd=1.00:0.00 / mixed_ref=0 / me_range=16 / chroma_me=1 / trellis=1 / 8x8dct=1 / cqm=0 / deadzone=21,11 / fast_pskip=1 / chroma_qp_offset=0 / threads=16 / lookahead_threads=4 / sliced_threads=0 / nr=0 / decimate=1 / interlaced=tff / bluray_compat=0 / constrained_intra=0 / bframes=3 / b_pyramid=2 / b_adapt=1 / b_bias=0 / direct=1 / weightb=1 / open_gop=0 / weightp=0 / keyint=78 / keyint_min=7 / scenecut=0 / intra_refresh=0 / rc_lookahead=20 / rc=abr / mbtree=1 / bitrate=3874 / ratetol=1.0 / qcomp=0.60 / qpmin=0 / qpmax=69 / qpstep=4 / vbv_maxrate=18599 / vbv_bufsize=4688 / nal_hrd=none / filler=0 / ip_ratio=1.40 / aq=1:1.00<br>
Color range : Limited<br>
<br>
Audio<br>
ID : 1091 (0x443)<br>
Menu ID : 1348 (0x544)<br>
Format : AC-3<br>
Format/Info : Audio Coding 3<br>
Commercial name : Dolby Digital<br>
Codec ID : 6<br>
Duration : 4 min 36 s<br>
Bit rate mode : Constant<br>
Bit rate : 384 kb/s<br>
Channel(s) : 2 channels<br>
Channel layout : L R<br>
Sampling rate : 48.0 kHz<br>
Frame rate : 31.250 FPS (1536 SPF)<br>
Compression mode : Lossy<br>
Stream size : 12.7 MiB (6%)<br>
Language : English<br>
Service kind : Complete Main<br>
<br>
Text<br>
ID : 1092 (0x444)-801<br>
Menu ID : 1348 (0x544)<br>
Format : Teletext Subtitle<br>
Language : English</div>
</div>
<div class="bbCodeBlock bbCodeVfcHH HiddenContent">
<div class="attribution type">Hidden Content:</div>
<blockquote>You must reply before you can see the hidden data contained here.</blockquote>
</div><img src="https://www.aaronsouth.com/azamusic/rita_VAU2023.png" class="bbCodeImage LbImage" alt="[​IMG]" data-url="https://www.aaronsouth.com/azamusic/rita_VAU2023.png" style="">
<div class="messageTextEndMarker">&nbsp;</div>
</blockquote>
</article>]]></description>
                <author><![CDATA[azamusic]]></author>
                </item>

                </channel></rss>